<?xml version="1.0" encoding="UTF-8"?>
<!DOCTYPE svg PUBLIC "-//W3C//DTD SVG 1.1//EN" "http://www.w3.org/Graphics/SVG/1.1/DTD/svg11.dtd">
<!-- Creator: CorelDRAW -->
<svg xmlns="http://www.w3.org/2000/svg" xml:space="preserve" width="12.0577in" height="3.88737in" version="1.1" style="shape-rendering:geometricPrecision; text-rendering:geometricPrecision; image-rendering:optimizeQuality; fill-rule:evenodd; clip-rule:evenodd"
viewBox="0 0 3141.85 1012.93"
 xmlns:xlink="http://www.w3.org/1999/xlink"
 xmlns:xodm="http://www.corel.com/coreldraw/odm/2003">
 <defs>
  <style type="text/css">
   <![CDATA[
    .fil0 {fill:#56584B}
   ]]>
  </style>
 </defs>
 <g id="Layer_x0020_1">
  <metadata id="CorelCorpID_0Corel-Layer"/>
  <path class="fil0" d="M2811.17 284.08c3.73,-46.36 30.81,-96.17 78.95,-93.72 38.41,1.95 89.46,47.36 98.26,73.73 -11.6,22 -42.97,39.75 -78.66,42.79 -18.95,1.61 -38.3,0.39 -55.8,-4.44 -18.33,-5.06 -28.69,-12.52 -42.75,-18.36zm-2486.22 -48.41c1.4,23.69 1.36,55.67 0.66,79.55 -3.12,107.04 -107.23,110.05 -143.52,-17.16 -12.19,-42.71 36.7,-78.41 76.05,-73.79 19.56,2.29 47.94,6.66 66.82,11.4zm-0.77 432.91c-2.45,57.46 -8.61,123.84 -47.18,149.32 -17.89,11.82 -52,19.83 -78.67,19.2 -28.83,-0.67 -52.75,-10.64 -74.93,-21.01 -21.9,-10.24 -47.2,-19.08 -69.98,-28.19 -26.78,-10.71 -41.84,17.81 -48.81,40.4 -18.29,59.17 21.84,112.86 49.59,136.31 59.16,50.11 158.41,61.21 236.08,33.49 34.39,-12.27 60.56,-30.18 70.2,-33.2 3.8,-7.23 33.37,-17.12 61.66,-74.52 12.7,-25.77 26.87,-70.81 32.96,-102.63 24.59,-128.36 9.55,-382.51 15.17,-530.67l7.3 -128.53c-0.83,-39.97 -24.72,-72.34 -61.26,-76.58 -28.62,-2.72 -40.37,15.52 -62.6,13.64 -14.68,-1.24 -44.15,-11.15 -62.14,-14.57 -126.06,-23.95 -242.34,74.95 -254.55,197.23 -9.07,90.8 28.27,180.9 70.78,234.01 18.71,23.37 52.32,54.7 84.33,70.86 54.61,27.59 73.17,13.93 132.41,12.25l-0.35 103.2zm186.13 -500.66c3.21,37.47 9.37,79.49 14.07,117.47 9.54,77.14 19.54,155.03 29,232.1 8.47,69.02 14.1,168.69 56.95,204.46 29.32,24.47 70.98,21.12 96.56,-4.3 20.71,-20.58 34.04,-57.12 37.26,-94.35 8.56,-99.08 5.11,-266.99 45.55,-347.12 54.41,-107.81 100.84,-24.47 177.87,-28.27 19.87,-0.98 37.06,-8.4 45.82,-18.92 35.74,-42.91 19.66,-113.65 -14.51,-145.01 -30.55,-28.03 -78.26,-43.54 -83.23,-48.48 -23.37,0.27 -74.69,-27.32 -151.4,14.98 -38.53,21.25 -59.21,46.7 -82.25,80.74 -4.15,6.12 -5.49,8.8 -10.46,11.87 -9.69,-66.91 -21.74,-138.76 -100.12,-132.37 -14.91,6.14 -18.02,6.07 -30.37,14.92 -38.98,27.93 -34.24,101.35 -30.73,142.28zm780.58 111.48c15.05,-2.39 41.52,-4.98 51.98,4.49 11.21,10.15 17.14,19.67 24.79,36.11 47.75,102.63 -5.8,229.34 -97.21,230.61 -75.29,1.04 -112.78,-63.04 -92.85,-139.81 9.35,-36 20.15,-53.29 42.41,-79.25 8.49,-9.9 20.42,-20.78 31.59,-29.33 11.18,-8.55 22.61,-20.17 39.28,-22.82zm247.25 157.49c8.94,-91.28 -12.19,-174.27 -51.06,-240.27 -10.27,-17.45 -19.39,-29.18 -31.02,-43.54 -61.22,-75.61 -82.69,-58.13 -155,-62.53 -51.85,-3.15 -77.57,12.82 -110.41,34.93 -31.98,21.53 -51.98,43.08 -76.38,68.92 -45.98,48.68 -83.15,129.09 -92.94,199.5 -12.15,87.26 11.44,180.62 49.85,240.26 32.81,50.95 95.51,103.53 185.44,107.21 165.98,6.8 266.73,-153.42 281.53,-304.48zm298.1 -157.77c16.68,-2.17 41.37,-4.71 51.73,5.56 75.64,75 44.8,265.87 -75.65,265.96 -75.35,0.05 -110.63,-65.74 -90.37,-141.4 4.1,-15.3 9.66,-31.01 17.01,-43.75 17.28,-29.93 67.2,-82.45 97.27,-86.37zm245.78 157.77c8.36,-92.51 -11.6,-173.37 -51.05,-240.27 -10.16,-17.22 -19.22,-29.17 -31.01,-43.56 -63.37,-77.33 -81.4,-57.63 -151.9,-62.32 -50.11,-3.33 -79.37,10.73 -111.15,33.15 -16.6,11.71 -27.42,20.55 -41.72,32.86 -225.98,194.56 -144.87,572.34 103.3,584.52 66.22,3.25 117.81,-20.45 164.18,-57.79 25.34,-20.4 51.21,-51.77 67.15,-80.13 27.06,-48.15 47.02,-109.21 52.19,-166.47zm23.91 -331.77c1.61,27.19 10.63,40.25 19.32,62.03 53.03,132.8 73.14,533.03 224.12,576.95 85.04,24.74 131.99,-94.74 152.62,-161.4 25.56,-82.57 47.31,-164.77 73.45,-246.62 12.57,-39.36 27.65,-76.84 42.66,-116.37 41.32,-108.85 -40.78,-206.67 -114.55,-136.15 -30.06,28.73 -40.42,56.24 -57.68,103.33 -10.75,29.32 -77.61,233.51 -81.82,239.69 -15.15,-23.74 -47.63,-259.57 -84.77,-350.59 -13.63,-33.41 -37.98,-63.47 -73.76,-73.84l-24.08 -2.13c-15.67,1.38 -27.81,6.46 -37.25,14.76 -28.23,24.84 -40.61,50.51 -38.26,90.33zm742.93 383.24c63.91,0.14 99.56,1.41 155.2,-20.11 43.16,-16.69 75.19,-46.38 96.57,-78.21 23.41,-34.84 42.91,-82.04 41.08,-133.88 -1.9,-53.99 -26.29,-92.02 -49.09,-125.71 -36.52,-53.97 -121.78,-132.05 -229.4,-119.38 -52.72,6.21 -89.23,32.81 -116.91,58.03 -96.65,88.07 -109.58,289.89 -71.05,411.97 24.51,77.66 74.66,167.16 136.66,212.85 30.03,22.13 81.33,49.28 131.72,39.92 55.94,-10.39 106.35,-66.76 87.83,-123.9 -10.06,-31.03 -54.69,-40.15 -82.66,-47.08 -27.64,-6.84 -42.23,-12.21 -61.87,-26.43 -10.35,-7.49 -35.17,-33.01 -38.07,-48.08z"/>
 </g>
</svg>
