<?xml version="1.0" encoding="UTF-8"?>
<!DOCTYPE svg PUBLIC "-//W3C//DTD SVG 1.1//EN" "http://www.w3.org/Graphics/SVG/1.1/DTD/svg11.dtd">
<!-- Creator: CorelDRAW -->
<svg xmlns="http://www.w3.org/2000/svg" xml:space="preserve" width="15.748in" height="15.748in" version="1.1" style="shape-rendering:geometricPrecision; text-rendering:geometricPrecision; image-rendering:optimizeQuality; fill-rule:evenodd; clip-rule:evenodd"
viewBox="0 0 15748.03 15748.03"
 xmlns:xlink="http://www.w3.org/1999/xlink"
 xmlns:xodm="http://www.corel.com/coreldraw/odm/2003">
 <defs>
  <style type="text/css">
   <![CDATA[
    .fil1 {fill:#FEFEFE}
    .fil0 {fill:#56584B}
   ]]>
  </style>
 </defs>
 <g id="Layer_x0020_1">
  <metadata id="CorelCorpID_0Corel-Layer"/>
  <rect class="fil0" x="-2.65" y="2.65" width="15748.03" height="15748.03"/>
  <path class="fil1" d="M12631.12 7023.19c14.31,-177.91 118.24,-369.06 302.97,-359.69 147.42,7.47 343.31,181.74 377.1,282.97 -44.5,84.43 -164.92,152.55 -301.86,164.22 -72.73,6.19 -147,1.5 -214.15,-17.03 -70.33,-19.4 -110.11,-48.05 -164.06,-70.47zm-9541.49 -185.8c5.36,90.92 5.21,213.63 2.53,305.3 -11.99,410.79 -411.52,422.33 -550.8,-65.84 -46.77,-163.92 140.83,-300.92 291.85,-283.2 75.07,8.8 183.98,25.57 256.43,43.75zm-2.94 1661.39c-9.39,220.52 -33.03,475.26 -181.06,573.06 -68.65,45.35 -199.56,76.09 -301.93,73.7 -110.64,-2.57 -202.43,-40.81 -287.55,-80.61 -84.04,-39.3 -181.14,-73.22 -268.57,-108.2 -102.78,-41.11 -160.56,68.36 -187.33,155.03 -70.19,227.08 83.8,433.13 190.31,523.13 227.05,192.32 607.95,234.89 906.03,128.51 131.98,-47.1 232.4,-115.81 269.4,-127.4 14.6,-27.75 128.08,-65.72 236.65,-286 48.74,-98.89 103.11,-271.76 126.5,-393.89 94.38,-492.63 36.67,-1467.99 58.2,-2036.59l28 -493.28c-3.19,-153.4 -94.87,-277.62 -235.11,-293.89 -109.84,-10.42 -154.92,59.55 -240.24,52.33 -56.35,-4.77 -169.44,-42.8 -238.48,-55.92 -483.78,-91.93 -930.03,287.65 -976.89,756.91 -34.81,348.48 108.5,694.23 271.64,898.09 71.79,89.7 200.79,209.92 323.62,271.96 209.57,105.87 280.81,53.44 508.16,47.02l-1.35 396.06zm714.34 -1921.41c12.31,143.79 35.96,305.07 53.98,450.82 36.62,296.06 75,594.96 111.31,890.76 32.52,264.88 54.12,647.4 218.57,784.66 112.5,93.91 272.39,81.06 370.58,-16.49 79.49,-79 130.62,-219.2 142.98,-362.1 32.86,-380.25 19.61,-1024.65 174.8,-1332.16 208.8,-413.73 387.02,-93.92 682.64,-108.49 76.26,-3.76 142.21,-32.22 175.85,-72.61 137.16,-164.69 75.46,-436.15 -55.7,-556.53 -117.23,-107.58 -300.33,-167.11 -319.41,-186.06 -89.67,1.02 -286.65,-104.86 -581.03,57.48 -147.86,81.54 -227.23,179.24 -315.67,309.88 -15.93,23.5 -21.09,33.78 -40.16,45.55 -37.18,-256.77 -83.44,-532.51 -384.24,-508.01 -57.22,23.58 -69.15,23.3 -116.54,57.26 -149.6,107.2 -131.4,388.97 -117.94,546.05zm2995.65 427.81c57.77,-9.18 159.33,-19.1 199.5,17.23 43.04,38.94 65.78,75.5 95.14,138.59 183.27,393.86 -22.28,880.17 -373.06,885.02 -288.94,4 -432.82,-241.92 -356.33,-536.55 35.87,-138.16 77.32,-204.52 162.75,-304.16 32.58,-38 78.37,-79.76 121.24,-112.55 42.89,-32.8 86.77,-77.42 150.75,-87.58zm948.9 604.39c34.31,-350.32 -46.78,-668.79 -195.94,-922.09 -39.43,-66.95 -74.42,-111.98 -119.06,-167.1 -234.94,-290.18 -317.33,-223.11 -594.87,-239.97 -199,-12.09 -297.69,49.22 -423.72,134.04 -122.75,82.62 -199.47,165.31 -293.14,264.49 -176.44,186.82 -319.09,495.42 -356.69,765.65 -46.61,334.87 43.91,693.16 191.3,922.07 125.9,195.55 366.54,397.31 711.69,411.46 636.98,26.1 1023.66,-588.77 1080.43,-1168.53zm1144.03 -605.48c64.02,-8.34 158.76,-18.09 198.54,21.35 290.28,287.83 171.92,1020.34 -290.34,1020.68 -289.18,0.2 -424.56,-252.3 -346.81,-542.67 15.72,-58.72 37.07,-119.01 65.3,-167.91 66.32,-114.87 257.89,-316.41 373.31,-331.45zm943.24 605.48c32.07,-355.03 -44.5,-665.34 -195.92,-922.08 -38.97,-66.09 -73.76,-111.95 -119.02,-167.17 -243.21,-296.78 -312.41,-221.17 -582.96,-239.15 -192.32,-12.77 -304.59,41.2 -426.57,127.22 -63.7,44.94 -105.24,78.85 -160.1,126.09 -867.26,746.69 -555.98,2196.5 396.45,2243.25 254.13,12.48 452.13,-78.49 630.1,-221.77 97.24,-78.29 196.55,-198.69 257.71,-307.53 103.85,-184.8 180.44,-419.14 200.3,-638.87zm91.78 -1273.27c6.17,104.33 40.79,154.48 74.15,238.05 203.51,509.65 280.7,2045.64 860.11,2214.2 326.37,94.94 506.54,-363.57 585.73,-619.4 98.09,-316.87 181.58,-632.36 281.89,-946.45 48.25,-151.04 106.12,-294.88 163.71,-446.62 158.57,-417.73 -156.5,-793.13 -439.61,-522.51 -115.35,110.27 -155.13,215.84 -221.38,396.55 -41.25,112.51 -297.83,896.15 -314.02,919.88 -58.13,-91.11 -182.81,-996.16 -325.34,-1345.46 -52.32,-128.23 -145.78,-243.59 -283.07,-283.37l-92.42 -8.19c-60.15,5.3 -106.72,24.78 -142.95,56.66 -108.36,95.35 -155.85,193.85 -146.81,346.67zm2851.2 1470.79c245.28,0.55 382.08,5.42 595.63,-77.18 165.62,-64.07 288.56,-178 370.63,-300.16 89.84,-133.72 164.67,-314.83 157.65,-513.8 -7.3,-207.18 -100.9,-353.14 -188.41,-482.44 -140.17,-207.11 -467.37,-506.79 -880.39,-458.13 -202.33,23.84 -342.45,125.92 -448.69,222.71 -370.93,337.98 -420.55,1112.51 -272.69,1581.05 94.05,298.02 286.54,641.5 524.46,816.85 115.24,84.93 312.12,189.11 505.5,153.2 214.69,-39.87 408.16,-256.2 337.08,-475.48 -38.6,-119.09 -209.91,-154.09 -317.23,-180.67 -106.08,-26.26 -162.09,-46.85 -237.45,-101.43 -39.71,-28.76 -134.98,-126.67 -146.1,-184.52z"/>
 </g>
</svg>
